<svg xmlns:mydata="http://www.w3.org/2000/svg" mydata:contrastcolor="ffffff" mydata:template="Contrast" mydata:presentation="2.5" mydata:layouttype="undefined" mydata:specialfontid="undefined" mydata:id1="946" mydata:id2="151" mydata:companyname="Events Announcer" mydata:companytagline="the world events for you" version="1.1" xmlns="http://www.w3.org/2000/svg" xmlns:xlink="http://www.w3.org/1999/xlink" class="svg-primary-tile" viewBox="64.97 204.15 420.05 61.7"><g fill="#9678d3" fill-rule="none" stroke="none" stroke-width="1" stroke-linecap="butt" stroke-linejoin="miter" stroke-miterlimit="10" stroke-dasharray="" stroke-dashoffset="0" font-family="none" font-weight="none" font-size="none" text-anchor="none" style="mix-blend-mode: normal"><g data-paper-data="{&quot;isGlobalGroup&quot;:true,&quot;bounds&quot;:{&quot;x&quot;:65.00000000000003,&quot;y&quot;:204.16842620400112,&quot;width&quot;:420,&quot;height&quot;:61.663147591997785}}"><g data-paper-data="{&quot;textHeightFactor&quot;:0.49635707164846465,&quot;isSecondaryText&quot;:true}" fill-rule="nonzero"><path d="M162.24716,253.22006v6.04913h-1.10356v-6.04913h-1.69621v-1.10356h4.46532v1.10356z" data-paper-data="{&quot;glyphName&quot;:&quot;T&quot;,&quot;glyphIndex&quot;:0,&quot;firstGlyphOfWord&quot;:true,&quot;word&quot;:1}"/><path d="M176.27647,259.26919v-3.1574h-2.95304v3.1574h-1.10356v-7.15269h1.10356v2.89173h2.95304v-2.89173h1.10356v7.15269z" data-paper-data="{&quot;glyphName&quot;:&quot;H&quot;,&quot;glyphIndex&quot;:1,&quot;word&quot;:1}"/><path d="M185.67916,259.26919v-7.15269h4.41423v1.10356h-3.31067v1.78817h3.01435v1.10356h-3.01435v2.05384h3.34133v1.10356z" data-paper-data="{&quot;glyphName&quot;:&quot;E&quot;,&quot;glyphIndex&quot;:2,&quot;lastGlyphOfWord&quot;:true,&quot;word&quot;:1}"/><path d="M215.08463,259.26919h-1.04225l-1.32836,-4.80252l-1.37945,4.80252h-1.0729l-2.00275,-7.15269h1.19552l1.35901,4.7923l1.33857,-4.7923h1.08312l1.32836,4.7923l1.33857,-4.7923h1.1853z" data-paper-data="{&quot;glyphName&quot;:&quot;W&quot;,&quot;glyphIndex&quot;:3,&quot;firstGlyphOfWord&quot;:true,&quot;word&quot;:2}"/><path d="M233.28764,255.66219c0,-0.33379 -0.04598,-0.65396 -0.13794,-0.9605c-0.09196,-0.30654 -0.23161,-0.57732 -0.41894,-0.81234c-0.18733,-0.23502 -0.42065,-0.42065 -0.69994,-0.55689c-0.2793,-0.13624 -0.60628,-0.20436 -0.98094,-0.20436c-0.36785,0 -0.69143,0.06812 -0.97072,0.20436c-0.2793,0.13624 -0.51091,0.32017 -0.69483,0.55178c-0.18393,0.23161 -0.32357,0.50069 -0.41894,0.80723c-0.09537,0.30654 -0.14305,0.63012 -0.14305,0.97072c0,0.3406 0.04768,0.66418 0.14305,0.97072c0.09537,0.30654 0.23502,0.57732 0.41894,0.81234c0.18393,0.23502 0.41554,0.42235 0.69483,0.562c0.2793,0.13965 0.60287,0.20947 0.97072,0.20947c0.37466,0 0.70164,-0.06812 0.98094,-0.20436c0.2793,-0.13624 0.51261,-0.32187 0.69994,-0.55689c0.18733,-0.23502 0.32698,-0.5058 0.41894,-0.81234c0.09196,-0.30654 0.13794,-0.63352 0.13794,-0.98094zM234.40142,255.65197c0,0.47685 -0.06982,0.93666 -0.20947,1.37945c-0.13965,0.44279 -0.35082,0.83278 -0.63352,1.16998c-0.2827,0.3372 -0.63352,0.60798 -1.05247,0.81234c-0.41894,0.20436 -0.9043,0.30654 -1.45608,0.30654c-0.55178,0 -1.03544,-0.10218 -1.45097,-0.30654c-0.41554,-0.20436 -0.76466,-0.47514 -1.04736,-0.81234c-0.2827,-0.3372 -0.49388,-0.72719 -0.63352,-1.16998c-0.13965,-0.44279 -0.20947,-0.9026 -0.20947,-1.37945c0,-0.47003 0.06982,-0.92474 0.20947,-1.36412c0.13965,-0.43938 0.35082,-0.82597 0.63352,-1.15976c0.2827,-0.33379 0.63182,-0.60117 1.04736,-0.80212c0.41554,-0.20096 0.8992,-0.30143 1.45097,-0.30143c0.55178,0 1.03714,0.10048 1.45608,0.30143c0.41894,0.20096 0.76977,0.46833 1.05247,0.80212c0.2827,0.33379 0.49388,0.72038 0.63352,1.15976c0.13965,0.43938 0.20947,0.89409 0.20947,1.36412z" data-paper-data="{&quot;glyphName&quot;:&quot;O&quot;,&quot;glyphIndex&quot;:4,&quot;word&quot;:2}"/><path d="M245.98372,256.37746h-1.27727v2.89173h-1.10356v-7.15269h2.71802c0.29292,0 0.56711,0.0562 0.82256,0.1686c0.25545,0.1124 0.48025,0.26567 0.6744,0.45982c0.19414,0.19414 0.34742,0.42065 0.45982,0.67951c0.1124,0.25886 0.1686,0.53475 0.1686,0.82767c0,0.42916 -0.11751,0.81745 -0.35253,1.16487c-0.23502,0.34742 -0.53305,0.60628 -0.89409,0.77658l1.61446,3.07566h-1.24661zM244.70646,255.2739h1.61446c0.14305,0 0.27589,-0.02555 0.39851,-0.07664c0.12262,-0.05109 0.22991,-0.12262 0.32187,-0.21458c0.09196,-0.09196 0.16519,-0.20096 0.21969,-0.32698c0.0545,-0.12602 0.08175,-0.26056 0.08175,-0.40362c0,-0.28611 -0.09878,-0.52794 -0.29633,-0.72549c-0.19755,-0.19755 -0.43938,-0.29973 -0.72549,-0.30654h-1.61446z" data-paper-data="{&quot;glyphName&quot;:&quot;R&quot;,&quot;glyphIndex&quot;:5,&quot;word&quot;:2}"/><path d="M257.12932,259.26919v-7.15269h1.10356v6.04913h3.33111v1.10356z" data-paper-data="{&quot;glyphName&quot;:&quot;L&quot;,&quot;glyphIndex&quot;:6,&quot;word&quot;:2}"/><path d="M276.31406,255.67241c0,0.49728 -0.07153,0.96391 -0.21458,1.39988c-0.14305,0.43597 -0.35934,0.81745 -0.64885,1.14443c-0.28951,0.32698 -0.64885,0.58414 -1.07801,0.77147c-0.42916,0.18733 -0.92985,0.281 -1.50206,0.281h-2.64649v-7.15269h2.64649c0.59265,0 1.10526,0.09537 1.53783,0.28611c0.43257,0.19074 0.7902,0.44789 1.0729,0.77147c0.2827,0.32357 0.49217,0.69994 0.62841,1.1291c0.13624,0.42916 0.20436,0.88557 0.20436,1.36923zM275.19007,255.68263c0,-0.77658 -0.21117,-1.38115 -0.63352,-1.81372c-0.42235,-0.43257 -0.99797,-0.64885 -1.72686,-0.64885h-1.50206v4.94557h1.50206c0.3951,0 0.73911,-0.05961 1.03203,-0.17882c0.29292,-0.11921 0.53815,-0.28611 0.73571,-0.50069c0.19755,-0.21458 0.34571,-0.47514 0.44449,-0.78169c0.09878,-0.30654 0.14816,-0.64715 0.14816,-1.02181z" data-paper-data="{&quot;glyphName&quot;:&quot;D&quot;,&quot;glyphIndex&quot;:7,&quot;lastGlyphOfWord&quot;:true,&quot;word&quot;:2}"/><path d="M293.37414,259.26919v-7.15269h4.41423v1.10356h-3.31067v1.78817h3.01435v1.10356h-3.01435v2.05384h3.34133v1.10356z" data-paper-data="{&quot;glyphName&quot;:&quot;E&quot;,&quot;glyphIndex&quot;:8,&quot;firstGlyphOfWord&quot;:true,&quot;word&quot;:3}"/><path d="M309.58283,257.30731c0.30654,-0.87195 0.61479,-1.74049 0.92474,-2.60562c0.30995,-0.86513 0.6182,-1.72686 0.92474,-2.58519h1.22618l-2.55453,7.15269h-1.04225l-2.55453,-7.15269h1.22618z" data-paper-data="{&quot;glyphName&quot;:&quot;V&quot;,&quot;glyphIndex&quot;:9,&quot;word&quot;:3}"/><path d="M321.34663,259.26919v-7.15269h4.41423v1.10356h-3.31067v1.78817h3.01435v1.10356h-3.01435v2.05384h3.34133v1.10356z" data-paper-data="{&quot;glyphName&quot;:&quot;E&quot;,&quot;glyphIndex&quot;:10,&quot;word&quot;:3}"/><path d="M339.27646,259.26919l-3.84202,-5.09884v5.09884h-1.08312v-7.15269h0.86854l3.87267,5.08863v-5.08863h1.08312v7.15269z" data-paper-data="{&quot;glyphName&quot;:&quot;N&quot;,&quot;glyphIndex&quot;:11,&quot;word&quot;:3}"/><path d="M351.54326,253.22006v6.04913h-1.10356v-6.04913h-1.69621v-1.10356h4.46532v1.10356z" data-paper-data="{&quot;glyphName&quot;:&quot;T&quot;,&quot;glyphIndex&quot;:12,&quot;word&quot;:3}"/><path d="M365.8367,253.84336c-0.19074,-0.23161 -0.40021,-0.39851 -0.62841,-0.50069c-0.2282,-0.10218 -0.49558,-0.15327 -0.80212,-0.15327c-0.3951,0 -0.70335,0.07664 -0.92474,0.22991c-0.22139,0.15327 -0.33209,0.3389 -0.33209,0.55689c0,0.13624 0.04939,0.25716 0.14816,0.36274c0.09878,0.10559 0.2265,0.20096 0.38318,0.28611c0.15668,0.08515 0.32698,0.16519 0.51091,0.24013c0.18393,0.07493 0.36445,0.14305 0.54156,0.20436h-0.01022c0.19755,0.06812 0.42065,0.15668 0.66929,0.26567c0.24864,0.10899 0.48366,0.24864 0.70505,0.41894c0.22139,0.1703 0.40873,0.37466 0.562,0.61309c0.15327,0.23842 0.22991,0.52112 0.22991,0.8481c0,0.3406 -0.06471,0.64204 -0.19414,0.9043c-0.12943,0.26227 -0.30995,0.48195 -0.54156,0.65907c-0.23161,0.17711 -0.50239,0.31165 -0.81234,0.40362c-0.30995,0.09196 -0.64544,0.13794 -1.00649,0.13794c-0.51091,0 -0.98775,-0.10899 -1.43054,-0.32698c-0.44279,-0.21799 -0.87876,-0.5654 -1.30792,-1.04225l0.8992,-0.73571c0.24524,0.3406 0.52283,0.58925 0.83278,0.74592c0.30995,0.15668 0.64885,0.23502 1.0167,0.23502c0.21117,0 0.40362,-0.02044 0.57732,-0.06131c0.17371,-0.04087 0.32357,-0.09878 0.4496,-0.17371c0.12602,-0.07493 0.2248,-0.16349 0.29633,-0.26567c0.07153,-0.10218 0.10729,-0.21458 0.10729,-0.3372c0,-0.1703 -0.05109,-0.32017 -0.15327,-0.4496c-0.10218,-0.12943 -0.23161,-0.24353 -0.38829,-0.34231c-0.15668,-0.09878 -0.33379,-0.18393 -0.53134,-0.25545c-0.19755,-0.07153 -0.38829,-0.13794 -0.57222,-0.19925l-0.24524,-0.09196c-0.23161,-0.08175 -0.45811,-0.1686 -0.67951,-0.26056c-0.22139,-0.09196 -0.42065,-0.21117 -0.59776,-0.35763c-0.17711,-0.14646 -0.32017,-0.32868 -0.42916,-0.54667c-0.10899,-0.21799 -0.16349,-0.48706 -0.16349,-0.80723c0,-0.25205 0.04428,-0.49728 0.13284,-0.73571c0.08856,-0.23842 0.2282,-0.44789 0.41894,-0.62841c0.19074,-0.18052 0.43597,-0.32528 0.73571,-0.43427c0.29973,-0.10899 0.66077,-0.16349 1.08312,-0.16349c0.24524,0 0.48025,0.02044 0.70505,0.06131c0.2248,0.04087 0.44279,0.1107 0.65396,0.20947c0.21117,0.09878 0.41724,0.2282 0.6182,0.38829c0.20096,0.16008 0.40021,0.35934 0.59776,0.59776l-0.95029,0.75614z" data-paper-data="{&quot;glyphName&quot;:&quot;S&quot;,&quot;glyphIndex&quot;:13,&quot;lastGlyphOfWord&quot;:true,&quot;word&quot;:3}"/><path d="M383.724,259.26919v-7.15269h4.41423v1.10356h-3.31067v1.78817h3.01435v1.10356h-3.01435v3.1574z" data-paper-data="{&quot;glyphName&quot;:&quot;F&quot;,&quot;glyphIndex&quot;:14,&quot;firstGlyphOfWord&quot;:true,&quot;word&quot;:4}"/><path d="M402.606,255.66219c0,-0.33379 -0.04598,-0.65396 -0.13794,-0.9605c-0.09196,-0.30654 -0.23161,-0.57732 -0.41894,-0.81234c-0.18733,-0.23502 -0.42065,-0.42065 -0.69994,-0.55689c-0.2793,-0.13624 -0.60628,-0.20436 -0.98094,-0.20436c-0.36785,0 -0.69143,0.06812 -0.97072,0.20436c-0.2793,0.13624 -0.51091,0.32017 -0.69483,0.55178c-0.18393,0.23161 -0.32357,0.50069 -0.41894,0.80723c-0.09537,0.30654 -0.14305,0.63012 -0.14305,0.97072c0,0.3406 0.04768,0.66418 0.14305,0.97072c0.09537,0.30654 0.23502,0.57732 0.41894,0.81234c0.18393,0.23502 0.41554,0.42235 0.69483,0.562c0.2793,0.13965 0.60287,0.20947 0.97072,0.20947c0.37466,0 0.70164,-0.06812 0.98094,-0.20436c0.2793,-0.13624 0.51261,-0.32187 0.69994,-0.55689c0.18733,-0.23502 0.32698,-0.5058 0.41894,-0.81234c0.09196,-0.30654 0.13794,-0.63352 0.13794,-0.98094zM403.71977,255.65197c0,0.47685 -0.06982,0.93666 -0.20947,1.37945c-0.13965,0.44279 -0.35082,0.83278 -0.63352,1.16998c-0.2827,0.3372 -0.63352,0.60798 -1.05247,0.81234c-0.41894,0.20436 -0.9043,0.30654 -1.45608,0.30654c-0.55178,0 -1.03544,-0.10218 -1.45097,-0.30654c-0.41554,-0.20436 -0.76466,-0.47514 -1.04736,-0.81234c-0.2827,-0.3372 -0.49388,-0.72719 -0.63352,-1.16998c-0.13965,-0.44279 -0.20947,-0.9026 -0.20947,-1.37945c0,-0.47003 0.06982,-0.92474 0.20947,-1.36412c0.13965,-0.43938 0.35082,-0.82597 0.63352,-1.15976c0.2827,-0.33379 0.63182,-0.60117 1.04736,-0.80212c0.41554,-0.20096 0.8992,-0.30143 1.45097,-0.30143c0.55178,0 1.03714,0.10048 1.45608,0.30143c0.41894,0.20096 0.76977,0.46833 1.05247,0.80212c0.2827,0.33379 0.49388,0.72038 0.63352,1.15976c0.13965,0.43938 0.20947,0.89409 0.20947,1.36412z" data-paper-data="{&quot;glyphName&quot;:&quot;O&quot;,&quot;glyphIndex&quot;:15,&quot;word&quot;:4}"/><path d="M415.30207,256.37746h-1.27727v2.89173h-1.10356v-7.15269h2.71802c0.29292,0 0.56711,0.0562 0.82256,0.1686c0.25545,0.1124 0.48025,0.26567 0.6744,0.45982c0.19414,0.19414 0.34742,0.42065 0.45982,0.67951c0.1124,0.25886 0.1686,0.53475 0.1686,0.82767c0,0.42916 -0.11751,0.81745 -0.35253,1.16487c-0.23502,0.34742 -0.53305,0.60628 -0.89409,0.77658l1.61446,3.07566h-1.24661zM414.02481,255.2739h1.61446c0.14305,0 0.27589,-0.02555 0.39851,-0.07664c0.12262,-0.05109 0.22991,-0.12262 0.32187,-0.21458c0.09196,-0.09196 0.16519,-0.20096 0.21969,-0.32698c0.0545,-0.12602 0.08175,-0.26056 0.08175,-0.40362c0,-0.28611 -0.09878,-0.52794 -0.29633,-0.72549c-0.19755,-0.19755 -0.43938,-0.29973 -0.72549,-0.30654h-1.61446z" data-paper-data="{&quot;glyphName&quot;:&quot;R&quot;,&quot;glyphIndex&quot;:16,&quot;lastGlyphOfWord&quot;:true,&quot;word&quot;:4}"/><path d="M438.68828,254.69147l1.81883,-2.57497h1.31814l-2.57497,3.80114l-0.01022,3.35155h-1.10356v-3.35155l-2.57497,-3.80114h1.31814z" data-paper-data="{&quot;glyphName&quot;:&quot;Y&quot;,&quot;glyphIndex&quot;:17,&quot;firstGlyphOfWord&quot;:true,&quot;word&quot;:5}"/><path d="M457.0189,255.66219c0,-0.33379 -0.04598,-0.65396 -0.13794,-0.9605c-0.09196,-0.30654 -0.23161,-0.57732 -0.41894,-0.81234c-0.18733,-0.23502 -0.42065,-0.42065 -0.69994,-0.55689c-0.2793,-0.13624 -0.60628,-0.20436 -0.98094,-0.20436c-0.36785,0 -0.69143,0.06812 -0.97072,0.20436c-0.2793,0.13624 -0.51091,0.32017 -0.69483,0.55178c-0.18393,0.23161 -0.32357,0.50069 -0.41894,0.80723c-0.09537,0.30654 -0.14305,0.63012 -0.14305,0.97072c0,0.3406 0.04768,0.66418 0.14305,0.97072c0.09537,0.30654 0.23502,0.57732 0.41894,0.81234c0.18393,0.23502 0.41554,0.42235 0.69483,0.562c0.2793,0.13965 0.60287,0.20947 0.97072,0.20947c0.37466,0 0.70164,-0.06812 0.98094,-0.20436c0.2793,-0.13624 0.51261,-0.32187 0.69994,-0.55689c0.18733,-0.23502 0.32698,-0.5058 0.41894,-0.81234c0.09196,-0.30654 0.13794,-0.63352 0.13794,-0.98094zM458.13267,255.65197c0,0.47685 -0.06982,0.93666 -0.20947,1.37945c-0.13965,0.44279 -0.35082,0.83278 -0.63352,1.16998c-0.2827,0.3372 -0.63352,0.60798 -1.05247,0.81234c-0.41894,0.20436 -0.9043,0.30654 -1.45608,0.30654c-0.55178,0 -1.03544,-0.10218 -1.45097,-0.30654c-0.41554,-0.20436 -0.76466,-0.47514 -1.04736,-0.81234c-0.2827,-0.3372 -0.49388,-0.72719 -0.63352,-1.16998c-0.13965,-0.44279 -0.20947,-0.9026 -0.20947,-1.37945c0,-0.47003 0.06982,-0.92474 0.20947,-1.36412c0.13965,-0.43938 0.35082,-0.82597 0.63352,-1.15976c0.2827,-0.33379 0.63182,-0.60117 1.04736,-0.80212c0.41554,-0.20096 0.8992,-0.30143 1.45097,-0.30143c0.55178,0 1.03714,0.10048 1.45608,0.30143c0.41894,0.20096 0.76977,0.46833 1.05247,0.80212c0.2827,0.33379 0.49388,0.72038 0.63352,1.15976c0.13965,0.43938 0.20947,0.89409 0.20947,1.36412z" data-paper-data="{&quot;glyphName&quot;:&quot;O&quot;,&quot;glyphIndex&quot;:18,&quot;word&quot;:5}"/><path d="M470.45848,259.34072c-0.17711,0 -0.3406,-0.01022 -0.49047,-0.03065c-0.33379,-0.04768 -0.64374,-0.13624 -0.92985,-0.26567c-0.28611,-0.12943 -0.53645,-0.29803 -0.75103,-0.5058c-0.21458,-0.20777 -0.38488,-0.453 -0.51091,-0.73571c-0.12602,-0.2827 -0.19585,-0.59776 -0.20947,-0.94518v-4.74121h1.10356v4.62881c0,0.24524 0.04258,0.45641 0.12773,0.63352c0.08515,0.17711 0.19925,0.32528 0.34231,0.44449c0.14305,0.11921 0.30995,0.21117 0.50069,0.27589c0.19074,0.06471 0.3951,0.10729 0.61309,0.12773c0.03406,0.00681 0.05961,0.01022 0.07664,0.01022c0.01703,0 0.03576,0 0.0562,0h0.15327c0.02044,0 0.03917,0 0.0562,0c0.01703,0 0.04258,-0.00341 0.07664,-0.01022c0.21799,-0.02044 0.42405,-0.06301 0.6182,-0.12773c0.19414,-0.06471 0.36274,-0.15668 0.5058,-0.27589c0.14305,-0.11921 0.25716,-0.26737 0.34231,-0.44449c0.08515,-0.17711 0.12773,-0.38829 0.12773,-0.63352v-4.62881h1.10356v4.74121c-0.01362,0.34742 -0.08345,0.66248 -0.20947,0.94518c-0.12602,0.2827 -0.29633,0.52964 -0.51091,0.74081c-0.21458,0.21117 -0.46663,0.38148 -0.75614,0.51091c-0.28951,0.12943 -0.60457,0.21458 -0.94518,0.25545l-0.35763,0.03065z" data-paper-data="{&quot;glyphName&quot;:&quot;U&quot;,&quot;glyphIndex&quot;:19,&quot;lastGlyphOfWord&quot;:true,&quot;word&quot;:5}"/><path d="M155.41165,245.49985v-0.89888h329.58835v0.89888z" data-paper-data="{&quot;isContainerTopLineAboveSecondaryText&quot;:true}"/></g><g data-paper-data="{&quot;isPrimaryText&quot;:true}" fill-rule="nonzero"><path d="M175.65744,233.30988c-0.25347,0 -0.47585,0.15734 -0.57293,0.3912c-1.32903,3.19225 -4.10569,5.30655 -8.37063,5.30655c-3.96987,0 -6.63175,-4.40219 -6.63175,-9.56479v-0.0373c0.00191,-3.13199 2.54089,-5.67001 5.67288,-5.67001h8.65135c1.53037,0 2.54806,-1.59206 1.90148,-2.97895c-1.63893,-3.51602 -4.84505,-4.9603 -8.89334,-4.9603c-7.19224,0 -12.00286,3.64275 -12.00286,13.07698c0,6.725 4.39024,11.20898 10.92873,11.20898c4.28598,0 8.07029,-2.42467 9.7317,-6.12673c0.13486,-0.30225 -0.08369,-0.64562 -0.41463,-0.64562zM167.36716,215.98327c0.70493,0 1.37494,0.23147 1.99139,0.74032c2.74462,2.2659 0.99474,6.76518 -2.56432,6.78622l-6.49067,0.03778c0.7561,-5.40028 3.38498,-7.56432 7.0636,-7.56432zM166.67563,241.93398h-0.47824c0,1.978 -1.6088,3.5868 -3.5868,3.5868v0.47824c1.978,0 3.5868,1.6088 3.5868,3.5868h0.47824c0,-1.978 1.6088,-3.5868 3.5868,-3.5868v-0.47824c-1.978,0 -3.5868,-1.6088 -3.5868,-3.5868z" data-paper-data="{&quot;glyphName&quot;:&quot;&quot;,&quot;glyphIndex&quot;:0,&quot;firstGlyphOfWord&quot;:true,&quot;word&quot;:1}"/><path d="M193.95865,216.26311l-6.28196,17.10809l-6.57276,-17.10809h-1.37642c-1.67823,0 -2.83391,1.68323 -2.23179,3.24934l7.90513,20.56965h1.30734l8.74499,-23.59876c0.03403,-0.04254 0.08208,-0.22023 0.08208,-0.22023z" data-paper-data="{&quot;glyphName&quot;:&quot;v&quot;,&quot;glyphIndex&quot;:1,&quot;word&quot;:1}"/><path d="M215.64856,233.30988c-0.25347,0 -0.47585,0.15734 -0.57293,0.3912c-1.32903,3.19225 -4.10569,5.30655 -8.37063,5.30655c-3.96987,0 -6.63175,-4.40219 -6.63175,-9.56479v-0.0373c0.00191,-3.13199 2.54089,-5.67001 5.67288,-5.67001h8.65135c1.53037,0 2.54806,-1.59206 1.90148,-2.97895c-1.63893,-3.51602 -4.84505,-4.9603 -8.89334,-4.9603c-7.19224,0 -12.00286,3.64275 -12.00286,13.07698c0,6.725 4.39024,11.20898 10.92873,11.20898c4.28598,0 8.07029,-2.42467 9.7317,-6.12673c0.13486,-0.30225 -0.08369,-0.64562 -0.41463,-0.64562zM207.35828,215.98327c0.70493,0 1.37494,0.23147 1.99139,0.74032c2.74462,2.2659 0.99474,6.76518 -2.56432,6.78622l-6.49067,0.03778c0.7561,-5.40028 3.38498,-7.56432 7.0636,-7.56432zM206.66675,241.93398h-0.47824c0,1.978 -1.6088,3.5868 -3.5868,3.5868v0.47824c1.978,0 3.5868,1.6088 3.5868,3.5868h0.47824c0,-1.978 1.6088,-3.5868 3.5868,-3.5868v-0.47824c-1.978,0 -3.5868,-1.6088 -3.5868,-3.5868z" data-paper-data="{&quot;glyphName&quot;:&quot;&quot;,&quot;glyphIndex&quot;:2,&quot;word&quot;:1}"/><path d="M231.15659,215.79653c-1.80488,0 -3.77044,0.98183 -5.47632,2.63127c-0.90387,0.87374 -2.41654,0.21425 -2.41654,-1.04256v-1.12147h-1.56719c-1.58489,0 -2.86944,1.28455 -2.86944,2.86944v20.48157h4.43663v-16.56861c0,-0.58393 0.16738,-1.16164 0.5098,-1.63462c1.53611,-2.12195 3.86657,-3.46676 6.12194,-3.46676c2.19512,0 3.31611,2.56862 3.31611,6.39837v15.27162h4.43663v-15.27162c0,-5.13725 -2.19512,-8.54662 -6.49162,-8.54662z" data-paper-data="{&quot;glyphName&quot;:&quot;n&quot;,&quot;glyphIndex&quot;:3,&quot;word&quot;:1}"/><path d="M254.7151,234.66213c-0.28073,-0.05069 -0.5605,0.10426 -0.66093,0.37111c-0.67193,1.7934 -2.0153,2.94691 -4.08464,2.94691c-2.19512,0 -3.68962,-1.44763 -3.68962,-5.23098l0.11191,-11.30989c0.0153,-1.57341 1.29555,-2.84122 2.86944,-2.84122h4.25777v-2.33524h-7.09899v-5.60353h-0.48015c-0.70062,0 -1.27499,0.55476 -1.30751,1.2549c-0.15686,3.33237 -1.07508,4.50693 -4.27307,4.73792c-0.79149,0.05739 -1.41176,0.70158 -1.41176,1.49546v0.45146h3.03586v13.12337c0,6.02486 2.66188,8.35963 6.63175,8.35963c2.86131,0 5.39024,-1.90865 6.45384,-4.78718c0.10234,-0.2769 -0.06361,-0.58058 -0.3539,-0.63271z" data-paper-data="{&quot;glyphName&quot;:&quot;t&quot;,&quot;glyphIndex&quot;:4,&quot;word&quot;:1}"/><path d="M264.72874,226.44491c-3.64275,-0.98087 -5.03299,-3.26925 -5.03299,-5.9316c0,-2.61549 1.10952,-3.86513 3.49163,-3.86513c0.5495,0 1.09852,0.08704 1.63223,0.2506c2.08465,0.63893 3.74127,2.70827 4.90626,4.45528c0.09326,0.14012 0.14012,0.28025 0.23338,0.42037h0.18699v-3.51936c0,-0.42181 -0.25155,-0.80296 -0.63941,-0.96891l-0.86322,-0.36968c-1.72453,-0.73744 -3.5801,-1.1186 -5.45624,-1.12004c-4.06312,0 -6.77187,2.4285 -6.77187,6.07125c0,3.50263 2.24199,6.39837 6.53849,7.56575c3.50263,0.934 4.36776,2.94213 4.36776,5.23098c0,3.03586 -0.81827,4.56575 -3.48015,4.56575c-3.23672,0 -5.36154,-3.19655 -6.95886,-5.59301c-0.09326,-0.14012 -0.14012,-0.28025 -0.23338,-0.42037h-0.18699v3.74031c0,0.46581 0.2879,0.87374 0.71592,1.05643c0.76471,0.32664 1.47298,0.78288 2.23194,1.14156c1.5055,0.71114 2.85222,0.92683 4.43137,0.92683c4.4835,0 7.47249,-2.61549 7.47249,-6.53849c-0.00048,-3.22238 -2.24199,-5.93113 -6.58536,-7.09851z" data-paper-data="{&quot;glyphName&quot;:&quot;s&quot;,&quot;glyphIndex&quot;:5,&quot;lastGlyphOfWord&quot;:true,&quot;word&quot;:1}"/><path d="M307.61291,239.81107c-1.29029,-0.34242 -2.14443,-2.97656 -2.14443,-5.24007v-11.48875c0,-5.04399 -2.66188,-7.2855 -6.63175,-7.2855c-5.51075,0 -9.15398,4.4835 -9.15398,7.00525c0,1.868 1.07413,3.12912 2.66188,3.12912c1.35437,0 2.28838,-1.30751 2.28838,-2.24199c0,-0.79388 -0.934,-1.868 -0.934,-2.70875c0,-1.72788 1.96174,-4.857 4.857,-4.857c1.4945,0 2.47537,1.63462 2.47537,5.32424v3.69727c0,1.26112 -0.82209,2.37685 -2.02439,2.75705c-8.22333,2.5978 -10.25824,3.91917 -10.25824,7.5098c0,2.80201 2.10186,4.67049 5.27737,4.67049c1.60497,0 3.63653,-0.9517 6.15016,-3.35007c0.36538,-0.34864 0.98039,-0.17551 1.08082,0.31946c0.37064,1.83261 1.55141,2.79722 2.95217,2.79722h3.39933c0.02439,-0.00048 0.02774,-0.03156 0.0043,-0.03778zM301.03186,234.571c0.00048,0.75179 -0.36298,1.46054 -0.97274,1.89957c-1.25825,0.90531 -2.51267,1.27642 -3.69727,1.27642c-1.91487,0 -3.17599,-1.12099 -3.17599,-2.80201c0,-3.98134 1.20182,-5.24151 5.91008,-6.85461c0.94739,-0.32473 1.93591,0.37255 1.93591,1.37398zM298.2485,241.93398h-0.11956c0,2.07652 -1.68962,3.76614 -3.76614,3.76614v0.11956c2.07652,0 3.76614,1.68962 3.76614,3.76614h0.11956c0,-2.07652 1.68962,-3.76614 3.76614,-3.76614v-0.11956c-2.07652,0 -3.76614,-1.68962 -3.76614,-3.76614z" data-paper-data="{&quot;glyphName&quot;:&quot;&quot;,&quot;glyphIndex&quot;:6,&quot;firstGlyphOfWord&quot;:true,&quot;word&quot;:2}"/><path d="M321.84984,215.79653c-1.80488,0 -3.77044,0.98183 -5.47632,2.63127c-0.90387,0.87374 -2.41654,0.21425 -2.41654,-1.04256v-1.12147h-1.56719c-1.58489,0 -2.86944,1.28455 -2.86944,2.86944v20.48157h4.43663v-16.56861c0,-0.58393 0.16738,-1.16164 0.5098,-1.63462c1.53611,-2.12195 3.86657,-3.46676 6.12194,-3.46676c2.19512,0 3.31611,2.56862 3.31611,6.39837v15.27162h4.43663v-15.27162c0,-5.13725 -2.19512,-8.54662 -6.49162,-8.54662z" data-paper-data="{&quot;glyphName&quot;:&quot;n&quot;,&quot;glyphIndex&quot;:7,&quot;word&quot;:2}"/><path d="M343.97259,215.79653c-1.80488,0 -3.77044,0.98183 -5.47632,2.63127c-0.90387,0.87374 -2.41654,0.21425 -2.41654,-1.04256v-1.12147h-1.56719c-1.58489,0 -2.86944,1.28455 -2.86944,2.86944v20.48157h4.43663v-16.56861c0,-0.58393 0.16738,-1.16164 0.5098,-1.63462c1.53611,-2.12195 3.86657,-3.46676 6.12194,-3.46676c2.19512,0 3.31611,2.56862 3.31611,6.39837v15.27162h4.43663v-15.27162c0,-5.13725 -2.19512,-8.54662 -6.49162,-8.54662z" data-paper-data="{&quot;glyphName&quot;:&quot;n&quot;,&quot;glyphIndex&quot;:8,&quot;word&quot;:2}"/><path d="M377.28977,225.80643c-1.2658,-7.17488 -6.93813,-11.10642 -14.20511,-9.8251c-7.26697,1.28082 -11.25307,6.91611 -9.98777,14.09099c1.2653,7.17538 6.93763,11.10692 14.20511,9.8256c7.26747,-1.28132 11.25257,-6.91661 9.98777,-14.09149zM367.25295,239.62163c-4.36949,0.77029 -8.09432,-3.41001 -9.32659,-10.40119c-1.23277,-6.99169 0.83736,-12.19354 5.20685,-12.96383c4.36899,-0.77029 8.14037,3.4015 9.37314,10.39319c1.23227,6.99069 -0.88391,12.20105 -5.2534,12.97184z" data-paper-data="{&quot;glyphName&quot;:&quot;o&quot;,&quot;glyphIndex&quot;:9,&quot;word&quot;:2}"/><path d="M394.2269,216.26329v14.8216c0,3.18938 -2.52654,5.87996 -5.7164,5.91439c-0.02487,0.00048 -0.04974,0.00048 -0.07508,0.00048c-2.47537,0 -4.15638,-1.96174 -4.15638,-4.857v-15.87947h-1.56719c-1.58441,0 -2.86944,1.28455 -2.86944,2.86944v13.00955c0,4.76374 2.61549,7.93973 6.53849,7.93973c1.67432,0 3.3142,-0.69488 4.72883,-1.90578c1.22573,-1.04926 3.11764,-0.17456 3.11764,1.43902h2.24199l0.04687,-0.02678c0.64754,-0.18173 1.52511,-0.4022 2.14825,-0.58058v-22.74459z" data-paper-data="{&quot;glyphName&quot;:&quot;u&quot;,&quot;glyphIndex&quot;:10,&quot;word&quot;:2}"/><path d="M414.4951,215.79653c-1.80488,0 -3.77044,0.98183 -5.47632,2.63127c-0.90387,0.87374 -2.41654,0.21425 -2.41654,-1.04256v-1.12147h-1.56719c-1.58489,0 -2.86944,1.28455 -2.86944,2.86944v20.48157h4.43663v-16.56861c0,-0.58393 0.16738,-1.16164 0.5098,-1.63462c1.53611,-2.12195 3.86657,-3.46676 6.12194,-3.46676c2.19512,0 3.31611,2.56862 3.31611,6.39837v15.27162h4.43663v-15.27162c0,-5.13725 -2.19512,-8.54662 -6.49162,-8.54662z" data-paper-data="{&quot;glyphName&quot;:&quot;n&quot;,&quot;glyphIndex&quot;:11,&quot;word&quot;:2}"/><path d="M435.81042,215.98305c1.16738,0 2.61549,1.868 3.64275,4.71688c0.46724,1.30751 1.35437,2.19512 2.24199,2.19512c1.77475,0 2.66188,-0.88713 2.19512,-2.19512c-1.07413,-2.94213 -4.25012,-4.90387 -7.98612,-4.90387c-7.51984,0.00048 -12.51696,5.13773 -12.51696,12.8436c0,6.86513 4.67049,11.44236 11.72261,11.44236c3.34098,0 6.64083,-2.27594 8.45814,-5.77618c0.16117,-0.31038 -0.04878,-0.68436 -0.39837,-0.69966c-0.22812,-0.00956 -0.43711,0.12099 -0.53563,0.32664c-1.4945,3.12338 -3.71879,5.16786 -6.96412,5.16786c-4.57675,0 -7.65948,-4.95074 -7.65948,-12.32949c0.00048,-6.49115 3.1296,-10.78813 7.80009,-10.78813z" data-paper-data="{&quot;glyphName&quot;:&quot;c&quot;,&quot;glyphIndex&quot;:12,&quot;word&quot;:2}"/><path d="M465.75573,233.30988c-0.25347,0 -0.47585,0.15734 -0.57293,0.3912c-1.32903,3.19225 -4.10569,5.30655 -8.37063,5.30655c-3.96987,0 -6.63175,-4.40219 -6.63175,-9.56479v-0.0373c0.00191,-3.13199 2.54089,-5.67001 5.67288,-5.67001h8.65135c1.53037,0 2.54806,-1.59206 1.90148,-2.97895c-1.63893,-3.51602 -4.84505,-4.9603 -8.89334,-4.9603c-7.19224,0 -12.00286,3.64275 -12.00286,13.07698c0,6.725 4.39024,11.20898 10.92873,11.20898c4.28598,0 8.07029,-2.42467 9.7317,-6.12673c0.13486,-0.30225 -0.08369,-0.64562 -0.41463,-0.64562zM457.46545,215.98327c0.70493,0 1.37494,0.23147 1.99139,0.74032c2.74462,2.2659 0.99474,6.76518 -2.56432,6.78622l-6.49067,0.03778c0.7561,-5.40028 3.38498,-7.56432 7.0636,-7.56432zM456.77391,241.93398h-0.47824c0,1.978 -1.6088,3.5868 -3.5868,3.5868v0.47824c1.978,0 3.5868,1.6088 3.5868,3.5868h0.47824c0,-1.978 1.6088,-3.5868 3.5868,-3.5868v-0.47824c-1.978,0 -3.5868,-1.6088 -3.5868,-3.5868z" data-paper-data="{&quot;glyphName&quot;:&quot;&quot;,&quot;glyphIndex&quot;:13,&quot;word&quot;:2}"/><path d="M480.14252,215.79653c-1.61167,0 -3.12673,0.63702 -4.36872,1.75323c-0.93018,0.83548 -2.40315,0.22047 -2.40315,-1.02965v-0.25634h-1.56719c-1.58441,0 -2.86944,1.28455 -2.86944,2.86944v20.48157h4.43663v-16.45335c0,-1.64754 0.68006,-3.25968 1.96652,-4.28885c0.81683,-0.65375 1.7647,-1.02104 2.75036,-1.02104c1.01004,0 1.65901,0.63175 1.68101,1.58536c0.03109,1.36968 0.989,2.56336 2.35581,2.65566c1.73457,0.11765 2.87565,-0.93352 2.87565,-2.6064c-0.00048,-2.19512 -1.96174,-3.68962 -4.85748,-3.68962z" data-paper-data="{&quot;glyphName&quot;:&quot;r&quot;,&quot;glyphIndex&quot;:14,&quot;lastGlyphOfWord&quot;:true,&quot;word&quot;:2}"/></g><g data-paper-data="{&quot;fillRule&quot;:&quot;evenodd&quot;,&quot;fillRuleOriginal&quot;:&quot;evenodd&quot;,&quot;isIcon&quot;:true,&quot;iconStyle&quot;:&quot;standalone&quot;,&quot;selectedEffects&quot;:{&quot;container&quot;:&quot;&quot;,&quot;transformation&quot;:&quot;&quot;,&quot;pattern&quot;:&quot;&quot;},&quot;bounds&quot;:{&quot;x&quot;:65.00000000000003,&quot;y&quot;:204.16842620400112,&quot;width&quot;:61.663147591997785,&quot;height&quot;:61.663147591997785},&quot;iconType&quot;:&quot;icon&quot;,&quot;rawIconId&quot;:&quot;1371441&quot;,&quot;isDetailed&quot;:false,&quot;suitableAsStandaloneIcon&quot;:true}" fill-rule="evenodd"><path d="M83.62767,223.43816c6.61877,0 12.61011,2.72474 16.92345,7.10591c1.08373,-2.36093 1.70344,-4.97776 1.70344,-7.74797c0,-10.28773 -8.33994,-18.62767 -18.6269,-18.62767c-10.28773,0 -18.62767,8.33994 -18.62767,18.62767c0,2.77022 0.61971,5.38628 1.70344,7.74797c4.31334,-4.38117 10.30468,-7.10591 16.92422,-7.10591zM108.03548,204.16843c-2.77022,0 -5.38628,0.61971 -7.75029,1.70344c4.38348,4.31334 7.10822,10.30468 7.10822,16.92422c0,6.61877 -2.72474,12.61011 -7.10822,16.92345c2.36324,1.08373 4.98007,1.70344 7.75029,1.70344c10.28773,0 18.62767,-8.33994 18.62767,-18.6269c0,-10.28773 -8.33994,-18.62767 -18.62767,-18.62767zM84.26973,247.20391c0,-6.61877 2.72474,-12.61011 7.10591,-16.92345c-2.36093,-1.08373 -4.97776,-1.70344 -7.74797,-1.70344c-10.28773,0 -18.62767,8.33994 -18.62767,18.6269c0,10.28773 8.33994,18.62767 18.62767,18.62767c2.77022,0 5.38628,-0.61971 7.74797,-1.70344c-4.38117,-4.31334 -7.10591,-10.30468 -7.10591,-16.92422zM108.03548,246.56184c-6.61877,0 -12.61011,-2.72474 -16.92345,-7.10822c-1.08373,2.36324 -1.70344,4.98007 -1.70344,7.75029c0,10.28773 8.33994,18.62767 18.6269,18.62767c10.28773,0 18.62767,-8.33994 18.62767,-18.62767c0,-2.77022 -0.61971,-5.38628 -1.70344,-7.75029c-4.31334,4.38348 -10.30468,7.10822 -16.92422,7.10822z" data-paper-data="{&quot;isPathIcon&quot;:true}"/></g></g></g></svg>